<?xml version="1.0" encoding="utf-8"?>
<!-- Generator: Adobe Illustrator 16.0.0, SVG Export Plug-In . SVG Version: 6.00 Build 0)  -->
<!DOCTYPE svg PUBLIC "-//W3C//DTD SVG 1.1//EN" "http://www.w3.org/Graphics/SVG/1.1/DTD/svg11.dtd">
<svg version="1.1" xmlns="http://www.w3.org/2000/svg" xmlns:xlink="http://www.w3.org/1999/xlink" x="0px" y="0px"
 height="60px" viewBox="0 0 102.8 60" style="enable-background:new 0 0 102.8 60;" >
<style type="text/css">
<![CDATA[
	.st0{fill-rule:evenodd;clip-rule:evenodd;fill:#454544;}
	.st1{fill-rule:evenodd;clip-rule:evenodd;fill:#FFFFFF;}
]]>
</style>
<path class="st1" d="M102.8,2.4v55.3c0,1.3-1.1,2.4-2.4,2.4H2.4C1.1,60,0,58.9,0,57.6V2.4C0,1.1,1.1,0,2.4,0h98.1
	C101.8,0,102.8,1.1,102.8,2.4z"/>
<path class="st0" d="M97.9,6.9v46.2c0,1.1-0.9,2-2.1,2H7.5c-1.2,0-2.1-0.9-2.1-2V6.9c0-1.1,0.9-2,2.1-2h88.2
	C96.9,4.9,97.9,5.8,97.9,6.9z"/>
<path class="st1" d="M77.2,17.6c3.4,0,6.1,2.7,6.1,6.1c0,3.4-2.7,6.1-6.1,6.1c-3.4,0-6.1-2.7-6.1-6.1C71.1,20.4,73.8,17.6,77.2,17.6
	z"/>
<path class="st1" d="M77.5,35.2c7.4,0,13.4,2.5,13.4,5.5c0,0.4-14.3,2.1-26.6,0.1c-0.1,0-0.2,0-0.2-0.1
	C64.1,37.7,70.1,35.2,77.5,35.2z"/>
<path class="st1" d="M49.6,21.2c0,1.3-1.1,2.4-2.4,2.4H14.6c-1.3,0-2.4-1.1-2.4-2.4s1.1-2.4,2.4-2.4h32.7
	C48.6,18.8,49.6,19.9,49.6,21.2z"/>
<path class="st1" d="M49.6,31.8c0,1.3-1.1,2.4-2.4,2.4H14.6c-1.3,0-2.4-1.1-2.4-2.4s1.1-2.4,2.4-2.4h32.7
	C48.6,29.4,49.6,30.5,49.6,31.8z"/>
<path class="st1" d="M49.6,42.1c0,1.3-1.1,2.4-2.4,2.4H14.6c-1.3,0-2.4-1.1-2.4-2.4s1.1-2.4,2.4-2.4h32.7
	C48.6,39.8,49.6,40.8,49.6,42.1z"/>
</svg>
