<?xml version="1.0" encoding="utf-8"?>
<!DOCTYPE svg PUBLIC "-//W3C//DTD SVG 1.1//EN" "http://www.w3.org/Graphics/SVG/1.1/DTD/svg11.dtd">
<svg version="1.1" id="Layer_1" xmlns="http://www.w3.org/2000/svg" xmlns:xlink="http://www.w3.org/1999/xlink" x="0px" y="0px"
	 width="35px" height="35px" viewBox="0 0 35 35" style="enable-background:new 0 0 35 35;" xml:space="preserve">
<style type="text/css">
<![CDATA[
	.st0{fill:#FFFFFF;}
	.st1{fill:#454546;}
]]>
</style>
<path class="st1" d="M17.5,0C7.8,0,0,7.8,0,17.5C0,27.2,7.8,35,17.5,35C27.2,35,35,27.2,35,17.5C35,7.8,27.2,0,17.5,0z M22.1,17.4
	h-3c0,4.9,0,10.8,0,10.8h-4.5c0,0,0-5.9,0-10.8h-2.1v-3.8h2.1v-2.5c0-1.8,0.8-4.5,4.5-4.5l3.3,0v3.7c0,0-2,0-2.4,0c-0.4,0-1,0.2-1,1
	v2.3h3.4L22.1,17.4z"/>
<g>
	<path class="st0" d="M22.5,13.6l-0.4,3.8h-3c0,4.9,0,10.8,0,10.8h-4.5c0,0,0-5.9,0-10.8h-2.1v-3.8h2.1v-2.5c0-1.8,0.8-4.5,4.5-4.5
		l3.3,0v3.7c0,0-2,0-2.4,0c-0.4,0-1,0.2-1,1v2.3H22.5z"/>
</g>
</svg>
