<?xml version="1.0" encoding="utf-8"?>
<!-- Generator: Adobe Illustrator 16.0.0, SVG Export Plug-In . SVG Version: 6.00 Build 0)  -->
<!DOCTYPE svg PUBLIC "-//W3C//DTD SVG 1.1//EN" "http://www.w3.org/Graphics/SVG/1.1/DTD/svg11.dtd">
<svg version="1.1" id="Capa_1" xmlns="http://www.w3.org/2000/svg" xmlns:xlink="http://www.w3.org/1999/xlink" x="0px" y="0px"
	 width="78.5px" height="80px" viewBox="-14 -13.8 78.5 80" style="enable-background:new -14 -13.8 78.5 80;" xml:space="preserve"
	>
<style type="text/css">
<![CDATA[
	.st0{fill:#454543;}
]]>
</style>
<path class="st0" d="M62.2,1.9c-1.8-0.6-3.3-3.8-2.5-5.5C60.3-5,61-5.4,59.8-6.5c-0.9-0.9-1.9,0.3-2.6,0.7c-0.3,0.2-0.8,0.3-1,0.3
	c-1.4,0.3-4.6-0.9-4.6-4c0-0.8-0.3-1.2-1.2-1.1c-0.9,0-1.4,0.1-1.6,1.1c-0.2,0.9-0.4,1.9-1,2.4c-1,0.9-2.2,1.6-3.8,1.6
	c-0.7,0-1.5-0.7-2.2-1.1c-0.8-0.5-1.3-0.7-2.1,0.1c-0.8,0.8-0.5,1.4,0,2.1c0.4,0.7,1.2,1.6,1.1,2.2c-0.2,1.3-0.8,2.6-1.5,3.6
	c-0.4,0.6-1.5,0.7-2.3,0.9c-1,0.2-1.2,0.6-1.2,1.5c0,1,0.4,1.3,1.3,1.5c0.8,0.1,1.8,0.3,2.2,0.8c0.7,1.1,1.3,2.5,1.6,3.8
	c0.1,0.6-0.6,1.4-1.1,2.1c-0.5,0.8-0.6,1.3,0.2,2.1c0.8,0.8,1.4,0.7,2.2,0.1c0.6-0.4,1.4-1.1,2-1c1.3,0.3,2.7,0.8,3.8,1.6
	c0.5,0.4,0.6,1.4,0.8,2.2c0.2,0.8,0.2,1.4,1.4,1.4c1.1,0,1.5-0.3,1.8-1.3c0.2-0.9,0.5-2.1,1.1-2.4c1.9-0.9,3.7-2.3,5.5-0.6
	c0.2,0.2,1.2,0.9,2.3-0.3c1-1,0.5-2-0.1-2.6c-1.8-2-0.3-5.8,1.5-5.8c1.8,0,2.5-0.3,2.5-1.8C64.5,2,62.9,2.2,62.2,1.9z M50.4,11
	c-3.6,0-6.5-3-6.5-6.6c0-3.6,3-6.5,6.6-6.5c3.5,0,6.5,3,6.4,6.6C57,8.1,54,11,50.4,11z"/>
<path class="st0" d="M28.6,49.7c-1.8-0.6-3.3-3.8-2.5-5.5c0.6-1.5,1.3-1.8,0.1-2.9c-0.9-0.9-1.9,0.3-2.6,0.7c-0.3,0.2-0.8,0.3-1,0.3
	c-1.4,0.3-4.6-0.9-4.6-4c0-0.8-0.3-1.2-1.2-1.1c-0.9,0-1.4,0.1-1.6,1.1c-0.2,0.9-0.4,1.9-1,2.4c-1,0.9-2.2,1.6-3.8,1.6
	c-0.7,0-1.5-0.7-2.2-1.1c-0.8-0.5-1.3-0.7-2.1,0.1c-0.8,0.8-0.5,1.4,0,2.1c0.4,0.7,1.2,1.6,1.1,2.2c-0.2,1.3-0.8,2.6-1.5,3.6
	c-0.4,0.6-1.5,0.7-2.3,0.9c-1,0.2-1.2,0.6-1.2,1.5c0,1,0.4,1.3,1.3,1.5c0.8,0.1,1.9,0.3,2.2,0.8c0.7,1.1,1.3,2.5,1.6,3.8
	c0.1,0.6-0.6,1.4-1.1,2.1c-0.5,0.8-0.6,1.3,0.2,2.1C7,62.7,7.6,62.6,8.4,62c0.6-0.4,1.4-1.1,2-1c1.3,0.3,2.7,0.8,3.8,1.6
	c0.5,0.4,0.6,1.4,0.8,2.2c0.2,0.8,0.2,1.4,1.4,1.4c1.1,0,1.5-0.3,1.8-1.3c0.2-0.9,0.5-2.1,1.1-2.4c1.9-0.9,3.7-2.3,5.5-0.6
	c0.2,0.2,1.2,0.9,2.3-0.3c1-1,0.5-2-0.1-2.6c-1.8-2-0.3-5.8,1.5-5.8c1.8,0,2.5-0.3,2.5-1.8C30.8,49.7,29.3,49.9,28.6,49.7z
	 M16.8,58.7c-3.6,0-6.5-3-6.5-6.6c0-3.6,3-6.5,6.6-6.5c3.5,0,6.5,3,6.4,6.6C23.3,55.8,20.4,58.7,16.8,58.7z"/>
<path class="st0" d="M33.4,8.6c-3.2-1.1-5.9-6.8-4.6-9.9c1.1-2.6,2.3-3.2,0.3-5.3c-1.7-1.6-3.3,0.6-4.7,1.3
	c-0.6,0.3-1.4,0.5-1.8,0.6c-2.4,0.5-8.3-1.5-8.3-7.1c0-1.5-0.6-2.1-2.2-2.1c-1.5,0-2.4,0.3-2.8,2c-0.3,1.5-0.7,3.5-1.7,4.4
	c-1.7,1.6-4,2.9-6.7,2.8c-1.2,0-2.7-1.2-4-2c-1.3-0.9-2.4-1.2-3.8,0.2C-8.4-5-7.7-4-6.9-2.7c0.8,1.3,2.2,2.8,2,4
	c-0.4,2.3-1.4,4.6-2.7,6.5c-0.7,1-2.7,1.3-4.2,1.5c-1.7,0.3-2.1,1.1-2.1,2.7c0,1.8,0.6,2.4,2.3,2.7c1.4,0.2,3.3,0.5,3.9,1.4
	c1.3,2,2.3,4.4,2.8,6.8c0.2,1.1-1.1,2.6-1.9,3.7c-1,1.4-1.1,2.4,0.3,3.7c1.4,1.5,2.5,1.3,3.9,0.2c1.1-0.8,2.5-2,3.5-1.8
	c2.4,0.5,4.8,1.5,6.7,2.8c0.9,0.6,1.1,2.6,1.4,3.9c0.3,1.4,0.4,2.5,2.4,2.6c1.9,0,2.7-0.6,3.2-2.4c0.4-1.6,0.8-3.8,1.9-4.4
	c3.4-1.6,6.7-4.2,9.8-1.1c0.3,0.3,2.1,1.6,4.2-0.5c1.8-1.8,0.9-3.5-0.2-4.7c-3.2-3.6-0.6-10.4,2.6-10.3c3.3,0.1,4.4-0.5,4.4-3.2
	C37.4,8.7,34.5,9,33.4,8.6z M12.2,24.8c-6.5,0-11.7-5.3-11.6-11.8C0.6,6.5,6,1.2,12.4,1.3C18.7,1.3,24,6.7,24,13.1
	C24,19.6,18.7,24.8,12.2,24.8z"/>
</svg>
