<?xml version="1.0" encoding="utf-8"?>
<!DOCTYPE svg PUBLIC "-//W3C//DTD SVG 1.1//EN" "http://www.w3.org/Graphics/SVG/1.1/DTD/svg11.dtd">
<svg version="1.1" id="Layer_1" xmlns="http://www.w3.org/2000/svg" xmlns:xlink="http://www.w3.org/1999/xlink" x="0px" y="0px"
	 width="35px" height="35px" viewBox="0 0 35 35" style="enable-background:new 0 0 35 35;" xml:space="preserve">
<style type="text/css">
<![CDATA[
	.st0{fill:#FFFFFF;}
	.st1{fill:#454546;}
]]>
</style>
<g>
	<path class="st1" d="M15.4,15.7c-0.3,0.3-0.7,0.5-1.1,0.5h0c-1.2,0-2.4-1.4-2.6-3.1c-0.1-0.9,0.1-1.7,0.5-2.2
		c0.3-0.3,0.7-0.5,1.1-0.5h0c1.2,0,2.4,1.4,2.6,3C16,14.3,15.8,15.2,15.4,15.7z"/>
	<path class="st1" d="M17.2,23.2c0,1.6-1.2,2.4-3.6,2.4c-1.8,0-3.2-1.1-3.2-2.5c0-1.3,1.6-2.4,3.5-2.4h0c0.4,0,0.8,0.1,1.2,0.2
		c0.1,0.1,0.3,0.2,0.4,0.3c0.9,0.6,1.4,1,1.6,1.6C17.2,22.9,17.2,23,17.2,23.2z"/>
	<path class="st1" d="M17.5,0C7.8,0,0,7.8,0,17.5C0,27.2,7.8,35,17.5,35C27.2,35,35,27.2,35,17.5C35,7.8,27.2,0,17.5,0z M15.9,27
		c-0.7,0.2-1.4,0.3-2.2,0.3c-0.9,0-1.7-0.1-2.5-0.3c-1.5-0.4-2.7-1.1-3.2-2c-0.2-0.4-0.3-0.8-0.3-1.3c0-0.5,0.1-0.9,0.3-1.4
		c0.8-1.8,3-3,5.5-3h0.1c-0.2-0.3-0.3-0.7-0.3-1.1c0-0.2,0-0.4,0.1-0.6c-2.6-0.1-4.5-1.9-4.5-4.4c0-1.8,1.4-3.5,3.4-4.1
		c0.6-0.2,1.2-0.3,1.8-0.3h5.5c0.2,0,0.3,0.1,0.4,0.3c0.1,0.2,0,0.4-0.2,0.5l-1.2,0.9c-0.1,0-0.2,0.1-0.3,0.1h-0.4
		c0.6,0.7,0.9,1.6,0.9,2.7c0,1.2-0.6,2.3-1.7,3.2c-0.9,0.7-0.9,0.8-0.9,1.2c0,0.2,0.6,0.9,1.3,1.3c1.5,1.1,2.1,2.1,2.1,3.9
		C19.5,24.8,18.1,26.4,15.9,27z M28.3,17.6c0,0.2-0.2,0.4-0.4,0.4h-3.1v3.1c0,0.2-0.2,0.4-0.4,0.4h-0.9c-0.2,0-0.4-0.2-0.4-0.4v-3.1
		h-3.1c-0.2,0-0.4-0.2-0.4-0.4v-0.9c0-0.2,0.2-0.4,0.4-0.4H23v-3.1c0-0.2,0.2-0.4,0.4-0.4h0.9c0.2,0,0.4,0.2,0.4,0.4v3.1h3.1
		c0.2,0,0.4,0.2,0.4,0.4V17.6z"/>
	<path class="st0" d="M28.3,16.7v0.9c0,0.2-0.2,0.4-0.4,0.4h-3.1v3.1c0,0.2-0.2,0.4-0.4,0.4h-0.9c-0.2,0-0.4-0.2-0.4-0.4v-3.1h-3.1
		c-0.2,0-0.4-0.2-0.4-0.4v-0.9c0-0.2,0.2-0.4,0.4-0.4H23v-3.1c0-0.2,0.2-0.4,0.4-0.4h0.9c0.2,0,0.4,0.2,0.4,0.4v3.1h3.1
		C28.1,16.3,28.3,16.5,28.3,16.7z"/>
	<path class="st0" d="M18.5,10.4l1.2-0.9c0.2-0.1,0.2-0.3,0.2-0.5c-0.1-0.2-0.2-0.3-0.4-0.3H14c-0.6,0-1.2,0.1-1.8,0.3
		c-2,0.7-3.4,2.4-3.4,4.1c0,2.5,1.9,4.3,4.5,4.4c0,0.2-0.1,0.4-0.1,0.6c0,0.4,0.1,0.8,0.3,1.1h-0.1c-2.4,0-4.6,1.2-5.5,3
		c-0.2,0.5-0.3,0.9-0.3,1.4c0,0.5,0.1,0.9,0.3,1.3c0.5,0.9,1.7,1.7,3.2,2c0.8,0.2,1.6,0.3,2.5,0.3c0.8,0,1.5-0.1,2.2-0.3
		c2.2-0.6,3.6-2.2,3.6-4.1c0-1.8-0.6-2.8-2.1-3.9c-0.7-0.5-1.3-1.1-1.3-1.3c0-0.4,0-0.6,0.9-1.2c1.1-0.9,1.7-2,1.7-3.2
		c0-1.1-0.3-2.1-0.9-2.7h0.4C18.4,10.5,18.4,10.5,18.5,10.4z M11.6,13.1c-0.1-0.9,0.1-1.7,0.5-2.2c0.3-0.3,0.7-0.5,1.1-0.5h0
		c1.2,0,2.4,1.4,2.6,3c0.1,0.9-0.1,1.8-0.5,2.3c-0.3,0.3-0.7,0.5-1.1,0.5h0C13,16.2,11.9,14.8,11.6,13.1z M17.2,22.7
		c0,0.1,0,0.3,0,0.5c0,1.6-1.2,2.4-3.6,2.4c-1.8,0-3.2-1.1-3.2-2.5c0-1.3,1.6-2.4,3.5-2.4h0c0.4,0,0.8,0.1,1.2,0.2
		c0.1,0.1,0.3,0.2,0.4,0.3C16.4,21.7,17,22.1,17.2,22.7z"/>
</g>
</svg>
