<?xml version="1.0" encoding="utf-8"?>
<!-- Generator: Adobe Illustrator 16.0.0, SVG Export Plug-In . SVG Version: 6.00 Build 0)  -->
<!DOCTYPE svg PUBLIC "-//W3C//DTD SVG 1.1//EN" "http://www.w3.org/Graphics/SVG/1.1/DTD/svg11.dtd">
<svg version="1.1" id="Layer_1" xmlns="http://www.w3.org/2000/svg" xmlns:xlink="http://www.w3.org/1999/xlink" x="0px" y="0px"
	 width="60px" height="34.9px" viewBox="-6.4 -2.5 60 34.9" style="enable-background:new -6.4 -2.5 60 34.9;" xml:space="preserve"
	>
<style type="text/css">
<![CDATA[
	.st0{fill:#e3c310;}
	.st1{enable-background:new;}
]]>
</style>
<g id="Shape_1_1_" class="st1">
	<g id="Shape_1">
		<g>
			<path class="st0" d="M3.6,7.5C11.7,3,19.3,2.6,19.3,2.6l4.2,22l4.2-21.8c0,0,6.6,0.6,14.8,4.9c1.8-0.4,2.4-0.8,3.1-1.3
				c-8.9-4.8-17.5-5.5-17.5-5.5s0.6-3,0.6-3.1c-5.6-0.8-10.3,0-10.3,0L19,1.2c0,0-10.6,1.5-17.7,6.2C1.5,7.2,2,7.5,3.6,7.5z
				 M15.1,21.4C6.7,14.5,4.3,7.6,4.3,7.6S2,14.7-6.4,21.3c0.3,4.9,10.7,5.2,10.7,5.2S14.1,26.4,15.1,21.4z M3.7,22.7
				c0,0-8-0.4-8.9-1.3C2.4,14.7,3.7,10,3.7,10V22.7z M4.8,22.7L4.7,10c0,0,1.4,4.6,8.9,11.4C12.9,22.3,4.8,22.7,4.8,22.7z
				 M29.2,24.4c-6,2.3-10.7,0.1-11.1,0c0.3,4.8-4.5,4.9-4.5,4.9v3.1h20.1v-3C33.7,29.5,28.5,29,29.2,24.4z M42.7,8.1
				c0,0-2.3,7-10.7,13.5c0.3,4.9,10.7,5.2,10.7,5.2s9.9-0.1,10.8-4.9C45.2,15.1,42.7,8.1,42.7,8.1z M42.1,23.1c0,0-8-0.4-8.9-1.3
				c7.6-6.8,8.9-11.4,8.9-11.4V23.1z M43.3,23.1l-0.1-12.7c0,0,1.4,4.6,8.9,11.4C51.3,22.7,43.3,23.1,43.3,23.1z"/>
		</g>
	</g>
</g>
</svg>
