<?xml version="1.0" encoding="utf-8"?>
<!-- Generator: Adobe Illustrator 16.0.0, SVG Export Plug-In . SVG Version: 6.00 Build 0)  -->
<!DOCTYPE svg PUBLIC "-//W3C//DTD SVG 1.1//EN" "http://www.w3.org/Graphics/SVG/1.1/DTD/svg11.dtd">
<svg version="1.1" id="Capa_1" xmlns="http://www.w3.org/2000/svg" xmlns:xlink="http://www.w3.org/1999/xlink" x="0px" y="0px"
	 width="84.9px" height="80px" viewBox="-10.8 -8.1 84.9 80" style="enable-background:new -10.8 -8.1 84.9 80;"
	 xml:space="preserve">
<style type="text/css">
<![CDATA[
	.st0{fill:#454543;}
]]>
</style>
<g>
	<circle class="st0" cx="33" cy="-1.9" r="6.2"/>
	<circle class="st0" cx="-3.8" cy="2.7" r="6.2"/>
	<circle class="st0" cx="67" cy="2.7" r="6.2"/>
	<path class="st0" d="M56.9,29.8H44.5c0-0.2,0-0.5,0-0.7c0-5.3,0-10.6,0-16c0-5.4-4.9-7.6-8.9-6.6c-1.3-0.3-2.7-0.3-4,0.1
		c-4.1-1.1-9.1,1-9.1,6.4c0,5.3,0,10.7,0,16c0,0.3,0,0.6,0,0.8H9.1v6.5h47.7V29.8z"/>
	<path class="st0" d="M60,18.8c0,7.3,0,14.6,0,21.9c0,0.3,0,0.5,0,0.7c-3.7,1.2-7.4,2.4-11,3.6c-1.6,0.5-2.5,1.7-2.8,3
		C46.1,48.5,46,49,46,49.6c0,6.1,0,12.1,0,18.2c0,5.3,8.3,5.3,8.3,0c0-5.3,0-10.5,0-15.8c5.4-1.8,10.8-3.5,16.3-5.1
		c1.7-0.5,2.5-1.6,2.8-2.9c0.5-0.9,0.8-2,0.8-3.3c0-7.3,0-14.6,0-21.9C74.1,9.8,60,9.7,60,18.8z"/>
	<path class="st0" d="M15.4,45.2c-4-1.3-8.1-2.7-12.2-4c0-0.2,0-0.3,0-0.5c0-7.3,0-14.6,0-21.9c0-9.1-14.1-9.2-14.1-0.1
		c0,7.3,0,14.6,0,21.9c0,4,2.7,6.3,5.8,6.7c5.1,1.4,10.2,3.1,15.2,4.7c0,5.3,0,10.5,0,15.8c0,5.3,8.3,5.3,8.3,0c0-6.1,0-12.1,0-18.2
		c0-0.6-0.1-1-0.3-1.5C17.9,46.9,17,45.7,15.4,45.2z"/>
	<path class="st0" d="M23.7,42.3c0,6.1,0,12.1,0,18.2c0,5.3,8.3,5.3,8.3,0c0-6.1,0-12.1,0-18.2C32,37,23.7,37,23.7,42.3z"/>
	<path class="st0" d="M33.6,42.3c0,6.1,0,12.1,0,18.2c0,5.3,8.3,5.3,8.3,0c0-6.1,0-12.1,0-18.2C41.8,37,33.6,37,33.6,42.3z"/>
</g>
</svg>
