<?xml version="1.0" encoding="utf-8"?>
<!-- Generator: Adobe Illustrator 16.0.0, SVG Export Plug-In . SVG Version: 6.00 Build 0)  -->
<!DOCTYPE svg PUBLIC "-//W3C//DTD SVG 1.1//EN" "http://www.w3.org/Graphics/SVG/1.1/DTD/svg11.dtd">
<svg version="1.1" id="Capa_1" xmlns="http://www.w3.org/2000/svg" xmlns:xlink="http://www.w3.org/1999/xlink" x="0px" y="0px"
	 width="35px" height="35px" viewBox="0 0 35 35" style="enable-background:new 0 0 35 35;" xml:space="preserve">
<style type="text/css">
<![CDATA[
	.st0{fill:#FFFFFF;}
	.st1{fill:#454543;}
]]>
</style>
<path class="st1" d="M17.5,0c2.4,0,4.7,0.5,6.8,1.4c2.1,0.9,4,2.2,5.6,3.7c1.6,1.6,2.8,3.4,3.7,5.6c0.9,2.1,1.4,4.4,1.4,6.8
	c0,1.6-0.2,3.2-0.6,4.7s-1,2.9-1.8,4.2c-0.8,1.3-1.7,2.5-2.7,3.5c-1.1,1.1-2.2,2-3.5,2.7c-1.3,0.8-2.7,1.3-4.2,1.8s-3,0.6-4.7,0.6
	c-1.6,0-3.2-0.2-4.7-0.6c-1.5-0.4-2.9-1-4.2-1.8c-1.3-0.8-2.5-1.7-3.5-2.7c-1.1-1.1-2-2.2-2.7-3.5c-0.8-1.3-1.3-2.7-1.8-4.2
	S0,19.2,0,17.5c0-1.6,0.2-3.2,0.6-4.7s1-2.9,1.8-4.2c0.8-1.3,1.7-2.5,2.7-3.5c1.1-1.1,2.2-2,3.5-2.7c1.3-0.7,2.7-1.3,4.2-1.8
	C14.3,0.2,15.9,0,17.5,0z"/>
<path class="st0" d="M27.4,23.5l-2.8,2.8c-0.1,0.1-0.3,0.3-0.5,0.4c-0.2,0.1-0.4,0.2-0.6,0.2h-0.1c-0.1,0-0.2,0-0.3,0
	c-0.3,0-0.7,0-1.3-0.1c-0.6-0.1-1.3-0.3-2.2-0.7c-0.9-0.4-1.9-0.9-3-1.6s-2.3-1.7-3.5-3c-1.5-2-2.6-3.4-3.3-4.1
	c-0.8-0.7-1.3-1.8-1.6-3.3s-0.5-2.2-0.5-2.2V11c0-0.2,0.1-0.4,0.2-0.6C8,10.2,8.1,10,8.3,9.9l2.8-2.8c0.2-0.2,0.5-0.3,0.7-0.3
	c0.4,0,0.6,0.2,0.8,0.6l2.3,4.3c0.1,0.2,0.2,0.5,0.1,0.8s-0.2,0.5-0.4,0.7l-1.1,1c-0.1,0.1-0.1,0.2-0.1,0.3c0,0.3,0.2,0.8,0.5,1.2
	c0.3,0.5,0.6,0.9,0.9,1.3c0.4,0.5,0.8,1,1.3,1.5c0.7,0.6,1.2,1.1,1.7,1.5s0.9,0.6,1.2,0.8c0.4,0.2,0.7,0.3,1,0.4
	c0.1,0,0.2,0,0.3-0.1l1.2-1.2c0.2-0.2,0.5-0.3,0.9-0.3c0.2,0,0.4,0,0.6,0.1l0,0l4.1,2.4c0.1,0.1,0.2,0.2,0.3,0.3
	c0.1,0.1,0.2,0.3,0.2,0.4C27.7,23,27.6,23.3,27.4,23.5z"/>
</svg>
