<?xml version="1.0" encoding="utf-8"?>
<!-- Generator: Adobe Illustrator 16.0.0, SVG Export Plug-In . SVG Version: 6.00 Build 0)  -->
<!DOCTYPE svg PUBLIC "-//W3C//DTD SVG 1.1//EN" "http://www.w3.org/Graphics/SVG/1.1/DTD/svg11.dtd">
<svg version="1.1" xmlns="http://www.w3.org/2000/svg" xmlns:xlink="http://www.w3.org/1999/xlink" 
	 viewBox="0 0 263.7 48.3" height="48.3" enable-background="new 0 0 263.7 48.3" xml:space="preserve">
<style type="text/css">
<![CDATA[
	.st0{fill:#464644;}
	.st1{fill-rule:evenodd;clip-rule:evenodd;fill:#e3c310;}
]]>
</style>
<path class="st0" d="M13.6,26c3.6,0,6.4-0.5,8.5-1.4c4.2-1.9,6.4-5.2,6.4-10.1c0-2.7-0.8-5-2.3-7c-1.5-1.9-3.6-3.2-6.3-3.8
	c-1.7-0.4-4.9-0.6-9.7-0.6H1.7v42.8h4.3V26h2.4l15.4,19.9h5.3L13.6,26z M22.9,18.4c-1.5,2.3-4.7,3.5-9.6,3.4l-7.4-0.1V7.3h7.6
	c2.9,0,5.1,0.3,6.3,0.8c1.3,0.5,2.3,1.4,3.1,2.5s1.1,2.5,1.1,3.9C24.1,15.9,23.7,17.2,22.9,18.4L22.9,18.4z"/>
<path class="st0" d="M67.7,3.1L53.2,36.2L39.1,3.1h-4.7l18.4,42.8h0.9L72.3,3.1H67.7z"/>
<path class="st0" d="M142.9,3.1h-4.3v42.8h4.3V3.1z"/>
<path class="st0" d="M181.2,3.1H177v25.8c0,3.4-0.1,5.6-0.4,6.7c-0.4,1.5-1.1,2.8-1.9,3.9c-1.9,2.3-4.3,3.4-7.4,3.4
	c-1.6,0-3.3-0.4-4.9-1.2c-2.9-1.4-4.6-3.7-5.1-7.1c-0.1-0.9-0.2-2.8-0.2-5.7V3.1h-4.3v25.9c0,4.3,0.3,7.3,0.8,9
	c0.9,2.9,2.7,5.2,5.3,6.8c2.4,1.5,5.3,2.2,8.5,2.2c3.2,0,5.9-0.9,8.2-2.7c2.3-1.8,3.8-4.1,4.7-6.9c0.6-2,0.9-4.9,0.9-8.5V3.1z"/>
<path class="st0" d="M203.9,26c3.6,0,6.4-0.5,8.5-1.4c4.3-1.9,6.4-5.2,6.4-10.1c0-2.7-0.8-5-2.3-7c-1.5-1.9-3.6-3.2-6.3-3.8
	c-1.7-0.4-4.9-0.6-9.7-0.6H192v42.8h4.3V26h2.4l15.4,19.9h5.3L203.9,26z M213.2,18.4c-1.5,2.3-4.7,3.5-9.6,3.4l-7.4-0.1V7.3h7.6
	c2.9,0,5.1,0.3,6.3,0.8c1.3,0.5,2.3,1.4,3.1,2.5c0.8,1.2,1.1,2.5,1.1,3.9C214.4,15.9,214,17.2,213.2,18.4L213.2,18.4z"/>
<path class="st0" d="M231.6,3.1h-4.3v42.8h4.3V3.1z"/>
<path class="st0" d="M258.9,27.5c-1.4-1.7-3.6-3.7-6.5-5.8c-3.2-2.4-5-3.8-5.5-4.3c-1.8-1.8-2.7-3.6-2.7-5.6c0-1.6,0.6-3,1.8-4
	c1.1-1,2.5-1.5,4.1-1.5s3.2,0.5,4.5,1.6c0.9,0.7,2,1.9,3.3,3.7l3.5-2.7c-3.4-4.7-7.2-7-11.2-7c-1.9,0-3.7,0.4-5.3,1.3
	c-3.4,1.9-5.1,4.8-5.1,8.7c0,2.3,0.8,4.5,2.3,6.5c1.1,1.5,3.5,3.6,7,6.2c3.4,2.6,5.8,4.7,7.1,6.5c1,1.4,1.5,2.8,1.5,4.2
	c0,1.3-0.3,2.5-1,3.6c-1.4,2.5-3.8,3.7-6.9,3.7c-3.4,0-6.3-2.3-8.9-7l-3.6,2.2c3.3,6,7.6,9.1,12.9,9.1c3.3,0,6.1-1.1,8.5-3.3
	c2.4-2.3,3.7-5,3.7-8.2C262.1,32.7,261,30.1,258.9,27.5L258.9,27.5z"/>
<path class="st1" d="M77.1,16.4c0,0,2.7,7.8,12.2,15.5c-1.2,5.5-12.2,5.6-12.2,5.6s-11.6-0.3-12-5.9C74.6,24.3,77.1,16.4,77.1,16.4z
	 M77.5,19.2l0.2,14.2c0,0,9-0.5,9.9-1.4C79.1,24.4,77.5,19.2,77.5,19.2z M76.6,19.2l-0.2,14.2 M76.6,19.2l-0.2,14.2
	c0,0-9-0.5-9.9-1.4C75.1,24.4,76.6,19.2,76.6,19.2z M120.2,16.9c0,0,2.7,7.8,12.2,15.5c-1.2,5.5-12.2,5.6-12.2,5.6s-11.6-0.3-12-5.9
	C117.8,24.8,120.2,16.9,120.2,16.9z M120.7,19.6l0.2,14.2c0,0,9-0.5,9.9-1.4C122.2,24.9,120.7,19.6,120.7,19.6z M119.8,19.6
	l-0.2,14.2c0,0-9-0.5-9.9-1.4C118.3,24.9,119.8,19.6,119.8,19.6z M76.3,16.2c9.3-5,17.7-5.6,17.7-5.6l4.7,24.7l4.7-24.5
	c0,0,7.4,0.7,16.6,5.6c2.1-0.5,2.8-0.9,3.5-1.4c-10-5.4-19.7-6.2-19.7-6.2s0.6-3.3,0.6-3.5c-6.3-0.9-11.6,0-11.6,0L93.6,9
	c0,0-11.8,1.8-19.8,6.9C73.9,16,74.6,16.2,76.3,16.2z M92.5,35.2c0.4,0.2,5.7,2.5,12.5,0c-0.7,5.2,5,5.6,5,5.6v3.5H87.5v-3.5
	C87.5,40.8,92.9,40.6,92.5,35.2z"/>
</svg>
