<?xml version="1.0" encoding="utf-8"?>
<!-- Generator: Adobe Illustrator 16.0.0, SVG Export Plug-In . SVG Version: 6.00 Build 0)  -->
<!DOCTYPE svg PUBLIC "-//W3C//DTD SVG 1.1//EN" "http://www.w3.org/Graphics/SVG/1.1/DTD/svg11.dtd">
<svg version="1.1" id="Layer_1" xmlns="http://www.w3.org/2000/svg" xmlns:xlink="http://www.w3.org/1999/xlink" x="0px" y="0px"
	 width="52.5px" height="80px" viewBox="-13.3 -26.5 52.5 80" style="enable-background:new -13.3 -26.5 52.5 80;"
	 xml:space="preserve">
<style type="text/css">
<![CDATA[
	.st0{fill:#434345;}
]]>
</style>
<g>
	<path class="st0" d="M-1.8-9.5h26.4c1.1,0,1.9-0.9,1.9-1.9c0-1.1-0.9-1.9-1.9-1.9H-1.8c-1.1,0-1.9,0.9-1.9,1.9
		C-3.7-10.4-2.8-9.5-1.8-9.5z"/>
	<path class="st0" d="M-1.8,0.3h26.4c1.1,0,1.9-0.9,1.9-1.9c0-1.1-0.9-1.9-1.9-1.9H-1.8c-1.1,0-1.9,0.9-1.9,1.9
		C-3.7-0.6-2.8,0.3-1.8,0.3z"/>
	<path class="st0" d="M33.6-26.5H-7.6c-3.1,0-5.6,2.5-5.6,5.6v54.5c0,3.1,2.5,5.6,5.6,5.6H7.2l1.2-3.9c-0.1-0.1-0.1-0.1-0.2-0.2
		H-7.6c-0.9,0-1.5-0.7-1.5-1.5v-54.5c0-0.9,0.7-1.5,1.5-1.5h41.3c0.8,0,1.5,0.7,1.5,1.5v54.5c0,0.8-0.7,1.5-1.5,1.5h-1.9l1.5,4.1
		h0.4c3.1,0,5.6-2.5,5.6-5.6v-54.5C39.3-24,36.7-26.5,33.6-26.5z"/>
	<path class="st0" d="M29.4,33.8c1.3-1.3,1.8-3.1,1.5-4.7c0.3-0.7,0.5-1.3,0.7-2c1-1,1.6-2.4,1.6-3.9c0-2.1-1.1-3.8-2.8-4.8
		c-0.1-0.2-0.2-0.3-0.3-0.5c0-1.4-0.5-2.8-1.6-3.9c-1-1-2.3-1.5-3.7-1.6c-1-1.6-2.7-2.7-4.7-2.7c-2,0-3.8,1.1-4.7,2.7
		c-1.9-0.7-4.2-0.2-5.7,1.3c-1.5,1.5-1.9,3.6-1.4,5.5c0,0.1-0.1,0.2-0.2,0.3c-1.4,1-2.3,2.6-2.3,4.5c0,1.7,0.7,3.1,1.9,4.1
		C7.9,28.3,8,28.7,8.1,29c-0.3,1.7,0.3,3.4,1.5,4.7c0.4,0.4,0.7,0.6,1.1,0.9L7,46.7l5.4-3.7l2.3,6.8l3.8-12.1
		c0.4,0.1,0.8,0.2,1.3,0.2c0.7,0,1.4-0.1,2-0.4l6.1,16l2.1-6.9l5.2,3l-5.9-15.7C29.4,33.8,29.4,33.8,29.4,33.8z M19.6,33.9
		c-5.6,0-10.1-4.5-10.1-10.1c0-5.6,4.5-10.1,10.1-10.1c5.6,0,10.1,4.5,10.1,10.1C29.6,29.4,25.1,33.9,19.6,33.9z"/>
</g>
</svg>
