<?xml version="1.0" encoding="utf-8"?>
<!-- Generator: Adobe Illustrator 16.0.0, SVG Export Plug-In . SVG Version: 6.00 Build 0)  -->
<!DOCTYPE svg PUBLIC "-//W3C//DTD SVG 1.1//EN" "http://www.w3.org/Graphics/SVG/1.1/DTD/svg11.dtd">
<svg version="1.1" id="Layer_1" xmlns="http://www.w3.org/2000/svg" xmlns:xlink="http://www.w3.org/1999/xlink" x="0px" y="0px"
	 width="50px" height="43.9px" viewBox="229.4 201.1 50 43.9" style="enable-background:new 229.4 201.1 50 43.9;"
	 xml:space="preserve">
<style type="text/css">
<![CDATA[
	.st0{fill:#E3C310;}
]]>
</style>
<g>
	<path class="st0" d="M279,241.3l-22.6-39.2c-0.4-0.7-1.1-1.1-2-1.1c-0.8,0-1.5,0.4-2,1.1l-22.8,39.4c-1,1.8,0.5,3.4,2,3.4h45.5
		c1.2,0,2.2-1,2.2-2.3C279.4,242.2,279.3,241.8,279,241.3z M235.6,240.4l18.9-32.7l18.9,32.7H235.6z"/>
	<path class="st0" d="M252.2,217.8v10c0,1.2,1,2.3,2.3,2.3c1.2,0,2.3-1,2.3-2.3v-10c0-1.2-1-2.3-2.3-2.3
		C253.2,215.6,252.2,216.6,252.2,217.8z"/>
	<path class="st0" d="M254.4,232.1c-1.5,0-2.8,1.2-2.8,2.8s1.2,2.9,2.8,2.9c1.5,0,2.8-1.3,2.8-2.9S256,232.1,254.4,232.1z"/>
</g>
</svg>
