<?xml version="1.0" encoding="utf-8"?>
<!DOCTYPE svg PUBLIC "-//W3C//DTD SVG 1.1//EN" "http://www.w3.org/Graphics/SVG/1.1/DTD/svg11.dtd">
<svg version="1.1" id="Layer_1" xmlns="http://www.w3.org/2000/svg" xmlns:xlink="http://www.w3.org/1999/xlink" x="0px" y="0px"
	 width="35px" height="35px" viewBox="0 0 35 35" style="enable-background:new 0 0 35 35;" xml:space="preserve">
<style type="text/css">
<![CDATA[
	.st0{fill:#FFFFFF;}
	.st1{fill:#454546;
]]>
</style>
<path class="st1" d="M17.5,0C7.8,0,0,7.8,0,17.5C0,27.2,7.8,35,17.5,35C27.2,35,35,27.2,35,17.5C35,7.8,27.2,0,17.5,0z M26.3,14
	c0,0.2,0,0.4,0,0.6c0,5.8-4.4,12.6-12.6,12.6c-2.5,0-4.8-0.7-6.8-2c0.3,0,0.7,0.1,1,0.1c2.1,0,4-0.7,5.5-1.9c-1.9,0-3.6-1.3-4.1-3.1
	c0.3,0,0.5,0.1,0.8,0.1c0.4,0,0.8-0.1,1.2-0.2c-2-0.4-3.5-2.2-3.5-4.3v-0.1c0.6,0.3,1.3,0.5,2,0.6c-1.2-0.8-2-2.1-2-3.7
	c0-0.8,0.2-1.6,0.6-2.2c2.2,2.7,5.4,4.4,9.1,4.6c-0.1-0.3-0.1-0.6-0.1-1c0-2.4,2-4.4,4.4-4.4c1.3,0,2.4,0.5,3.2,1.4
	c1-0.2,2-0.6,2.8-1.1c-0.3,1-1,1.9-1.9,2.4c0.9-0.1,1.7-0.3,2.5-0.7C27.9,12.6,27.2,13.4,26.3,14z"/>
<path class="st0" d="M26.3,14c0,0.2,0,0.4,0,0.6c0,5.8-4.4,12.6-12.6,12.6c-2.5,0-4.8-0.7-6.8-2c0.3,0,0.7,0.1,1,0.1
	c2.1,0,4-0.7,5.5-1.9c-1.9,0-3.6-1.3-4.1-3.1c0.3,0,0.5,0.1,0.8,0.1c0.4,0,0.8-0.1,1.2-0.2c-2-0.4-3.5-2.2-3.5-4.3v-0.1
	c0.6,0.3,1.3,0.5,2,0.6c-1.2-0.8-2-2.1-2-3.7c0-0.8,0.2-1.6,0.6-2.2c2.2,2.7,5.4,4.4,9.1,4.6c-0.1-0.3-0.1-0.6-0.1-1
	c0-2.4,2-4.4,4.4-4.4c1.3,0,2.4,0.5,3.2,1.4c1-0.2,2-0.6,2.8-1.1c-0.3,1-1,1.9-1.9,2.4c0.9-0.1,1.7-0.3,2.5-0.7
	C27.9,12.6,27.2,13.4,26.3,14z"/>
</svg>
